# xmcd
#
# Track frame offsets:
#   150
#   4614
#   23574
#   40923
#   58474
#   78876
#   99025
#   102648
#   118479
#   135930
#   153046
#   176077
#   192494
#   213029
#   237506
#   257465
#   271225
#   285455
#   299166
#   313539
#   324576
#   342791
#
# Disc length: 4787 seconds
#
# Revision: 0
# Processed by: cddbd v1.5.1PL0 Copyright (c) Steve Scherf et al.
# Submitted via: uFREEDB 1.6.0
#
DISCID=3512b116
DTITLE=aa - aa
DYEAR=1984
DGENRE=asd
TTITLE0=adfa
TTITLE1=adf
TTITLE2=adfa
TTITLE3=adf
TTITLE4=adfa
TTITLE5=adf
TTITLE6=afdadf
TTITLE7=adfa
TTITLE8=adf
TTITLE9=afd
TTITLE10=adfs
TTITLE11=asdf
TTITLE12=asdf
TTITLE13=asdf
TTITLE14=afsd
TTITLE15=adf
TTITLE16=adsf
TTITLE17=adsf
TTITLE18=asdf
TTITLE19=asdf
TTITLE20=adfs
TTITLE21=adsf
EXTD=
EXTT0=
EXTT1=
EXTT2=
EXTT3=
EXTT4=
EXTT5=
EXTT6=
EXTT7=
EXTT8=
EXTT9=
EXTT10=
EXTT11=
EXTT12=
EXTT13=
EXTT14=
EXTT15=
EXTT16=
EXTT17=
EXTT18=
EXTT19=
EXTT20=
EXTT21=
PLAYORDER=
